<?xml version="1.0" encoding="utf-8"?>
<!-- Generator: Adobe Illustrator 16.0.0, SVG Export Plug-In . SVG Version: 6.00 Build 0)  -->
<!DOCTYPE svg PUBLIC "-//W3C//DTD SVG 1.1//EN" "http://www.w3.org/Graphics/SVG/1.1/DTD/svg11.dtd">
<svg version="1.1" xmlns="http://www.w3.org/2000/svg" xmlns:xlink="http://www.w3.org/1999/xlink" x="0px" y="0px" width="1024px"
	 height="1024px" viewBox="0 0 1024 1024" enable-background="new 0 0 1024 1024" xml:space="preserve">
<g id="Layer_1">
</g>
<g id="Layer_2">
	<radialGradient id="SVGID_1_" cx="512" cy="512" r="512" gradientUnits="userSpaceOnUse">
		<stop  offset="0" style="stop-color:#E89E7B"/>
		<stop  offset="1" style="stop-color:#E67E7F"/>
	</radialGradient>
	<polygon fill="url(#SVGID_1_)" stroke="#000000" stroke-miterlimit="10" points="1024,1024 0,1024 0,481.752 0,0 1024,0 	"/>
</g>
<g id="Layer_3">
	<radialGradient id="SVGID_2_" cx="512" cy="656.1543" r="445.7883" gradientUnits="userSpaceOnUse">
		<stop  offset="0" style="stop-color:#9AD3B0"/>
		<stop  offset="0.0095" style="stop-color:#7CC3A2"/>
		<stop  offset="0.0188" style="stop-color:#64BA99"/>
		<stop  offset="0.0246" style="stop-color:#5AB796"/>
		<stop  offset="0.2365" style="stop-color:#5AB796"/>
	</radialGradient>
	<path opacity="0.2" fill="url(#SVGID_2_)" stroke="#000000" stroke-miterlimit="10" d="M1024,494.21V1024H0V494.21
		c0,0,263.34-463.28,512,0C760.66,957.49,1024,635.57,1024,494.21z"/>
</g>
<g id="Layer_4">
	<g>
		<radialGradient id="SVGID_3_" cx="498.6494" cy="489.3057" r="73.9033" gradientUnits="userSpaceOnUse">
			<stop  offset="0" style="stop-color:#5AB796"/>
			<stop  offset="0.2388" style="stop-color:#64BA99"/>
			<stop  offset="0.6181" style="stop-color:#7CC4A2"/>
			<stop  offset="1" style="stop-color:#9AD3B0"/>
		</radialGradient>
		<path fill="url(#SVGID_3_)" d="M483.038,563.209c-8.25,0-19.773-4.773-25.607-10.606l-22.078-22.078
			c-5.834-5.833-10.607-17.356-10.607-25.606v-31.224c0-8.25,4.773-19.773,10.606-25.606l22.079-22.079
			c5.833-5.833,17.356-10.606,25.606-10.606h31.224c8.25,0,19.773,4.773,25.606,10.607l22.078,22.078
			c5.833,5.834,10.606,17.357,10.606,25.607v31.224c0,8.25-4.773,19.773-10.606,25.606l-22.078,22.078
			c-5.833,5.833-17.356,10.606-25.606,10.606H483.038z"/>
		<path fill="none" stroke="#59B695" stroke-width="6" stroke-miterlimit="10" d="M483.038,563.209
			c-8.25,0-19.773-4.773-25.607-10.606l-22.078-22.078c-5.834-5.833-10.607-17.356-10.607-25.606v-31.224
			c0-8.25,4.773-19.773,10.606-25.606l22.079-22.079c5.833-5.833,17.356-10.606,25.606-10.606h31.224
			c8.25,0,19.773,4.773,25.606,10.607l22.078,22.078c5.833,5.834,10.606,17.357,10.606,25.607v31.224
			c0,8.25-4.773,19.773-10.606,25.606l-22.078,22.078c-5.833,5.833-17.356,10.606-25.606,10.606H483.038z"/>
	</g>
	<g display="none">
		<radialGradient id="SVGID_4_" cx="543.1465" cy="489.3057" r="46.9976" gradientUnits="userSpaceOnUse">
			<stop  offset="0" style="stop-color:#9AD3B0"/>
			<stop  offset="0.0095" style="stop-color:#7CC3A2"/>
			<stop  offset="0.0188" style="stop-color:#64BA99"/>
			<stop  offset="0.0246" style="stop-color:#5AB796"/>
			<stop  offset="0.2365" style="stop-color:#5AB796"/>
		</radialGradient>
		<path display="inline" fill="url(#SVGID_4_)" d="M538.681,536.303c-8.25,0-19.773-4.771-25.606-10.605l-6.318-6.318
			c-5.834-5.832-10.607-17.355-10.607-25.605v-8.934c0-8.25,4.773-19.773,10.607-25.606l6.318-6.317
			c5.833-5.833,17.356-10.606,25.606-10.606h8.935c8.25,0,19.772,4.773,25.606,10.607l6.316,6.316
			c5.834,5.834,10.606,17.357,10.606,25.607v8.934c0,8.25-4.773,19.773-10.606,25.607l-6.316,6.316
			c-5.833,5.832-17.356,10.605-25.606,10.605H538.681z"/>
		<path display="inline" fill="none" stroke="#1CAADA" stroke-width="4" stroke-miterlimit="10" d="M538.681,536.303
			c-8.25,0-19.773-4.771-25.606-10.605l-6.318-6.318c-5.834-5.832-10.607-17.355-10.607-25.605v-8.934
			c0-8.25,4.773-19.773,10.607-25.606l6.318-6.317c5.833-5.833,17.356-10.606,25.606-10.606h8.935
			c8.25,0,19.772,4.773,25.606,10.607l6.316,6.316c5.834,5.834,10.606,17.357,10.606,25.607v8.934
			c0,8.25-4.773,19.773-10.606,25.607l-6.316,6.316c-5.833,5.832-17.356,10.605-25.606,10.605H538.681z"/>
	</g>
	<g id="Layer_7" display="none">
		<polyline display="inline" fill="#9AD3B0" stroke="#1CAADA" stroke-miterlimit="10" points="512.535,415.402 524.725,444.831 
			561.569,444.831 573.759,415.402 		"/>
		<polygon display="inline" fill="#9AD3B0" stroke="#1CAADA" stroke-miterlimit="10" points="512.535,563.21 524.725,533.782 
			561.569,533.782 573.759,563.21 		"/>
		<polygon display="inline" fill="#499C86" stroke="#1CAADA" stroke-miterlimit="10" points="469.243,519.918 498.671,507.729 
			498.671,470.884 469.243,458.694 		"/>
		<polygon display="inline" fill="#499C86" stroke="#1CAADA" stroke-miterlimit="10" points="617.05,458.694 587.622,470.884 
			587.622,507.729 617.05,519.918 		"/>
	</g>
</g>
<g id="Layer_5">
	<radialGradient id="SVGID_5_" cx="496.6494" cy="394.9766" r="42.3703" gradientUnits="userSpaceOnUse">
		<stop  offset="0" style="stop-color:#017080"/>
		<stop  offset="1" style="stop-color:#99D7DA"/>
	</radialGradient>
	<path opacity="0.8" fill="url(#SVGID_5_)" stroke="#02707F" stroke-width="3" stroke-miterlimit="10" d="M440.318,415.402
		c0,0,61.332-55.847,112.664,0C552.981,415.402,501.649,323.49,440.318,415.402z"/>
	
		<radialGradient id="SVGID_6_" cx="730.6494" cy="588.3193" r="42.3696" gradientTransform="matrix(-1 0 0 -1 1229.2988 1171.9531)" gradientUnits="userSpaceOnUse">
		<stop  offset="0" style="stop-color:#017080"/>
		<stop  offset="1" style="stop-color:#99D7DA"/>
	</radialGradient>
	<path opacity="0.8" fill="url(#SVGID_6_)" stroke="#02707F" stroke-width="3" stroke-miterlimit="10" d="M554.98,563.209
		c0,0-61.331,55.848-112.663,0C442.318,563.209,493.65,655.121,554.98,563.209z"/>
</g>
<g id="Layer_6">
	<radialGradient id="SVGID_7_" cx="287.0674" cy="178.4727" r="25.4099" gradientUnits="userSpaceOnUse">
		<stop  offset="0" style="stop-color:#E72C25"/>
		<stop  offset="1" style="stop-color:#F47944"/>
	</radialGradient>
	<circle fill="url(#SVGID_7_)" stroke="#E74E25" stroke-width="6" stroke-miterlimit="10" cx="287.068" cy="178.473" r="25.41"/>
	<radialGradient id="SVGID_8_" cx="789.3496" cy="280.9321" r="28.6885" gradientUnits="userSpaceOnUse">
		<stop  offset="0" style="stop-color:#E72C25"/>
		<stop  offset="1" style="stop-color:#F47944"/>
	</radialGradient>
	<circle fill="url(#SVGID_8_)" stroke="#E74E25" stroke-width="6" stroke-miterlimit="10" cx="789.35" cy="280.932" r="28.688"/>
	<radialGradient id="SVGID_9_" cx="122.5459" cy="897.7363" r="25" gradientUnits="userSpaceOnUse">
		<stop  offset="0" style="stop-color:#E72C25"/>
		<stop  offset="1" style="stop-color:#F47944"/>
	</radialGradient>
	<circle fill="url(#SVGID_9_)" stroke="#E74E25" stroke-width="6" stroke-miterlimit="10" cx="122.546" cy="897.736" r="25"/>
	<radialGradient id="SVGID_10_" cx="904.1035" cy="940.7686" r="28.6885" gradientUnits="userSpaceOnUse">
		<stop  offset="0" style="stop-color:#E72C25"/>
		<stop  offset="1" style="stop-color:#F47944"/>
	</radialGradient>
	<circle fill="url(#SVGID_10_)" stroke="#E74E25" stroke-width="6" stroke-miterlimit="10" cx="904.104" cy="940.769" r="28.688"/>
	
		<radialGradient id="SVGID_11_" cx="78.6821" cy="86.5791" r="26.1511" gradientTransform="matrix(0.9668 0.2557 -0.2557 0.9668 24.939 -16.7764)" gradientUnits="userSpaceOnUse">
		<stop  offset="0" style="stop-color:#E72C25"/>
		<stop  offset="1" style="stop-color:#F47944"/>
	</radialGradient>
	<polygon fill="url(#SVGID_11_)" stroke="#E74E25" stroke-width="6" stroke-miterlimit="10" points="45.651,103.308 85.061,63.641 
		99.708,117.604 	"/>
	
		<radialGradient id="SVGID_12_" cx="286.8447" cy="774.293" r="26.1533" gradientTransform="matrix(0.6951 0.7189 -0.7189 0.6951 644.3213 29.5088)" gradientUnits="userSpaceOnUse">
		<stop  offset="0" style="stop-color:#E72C25"/>
		<stop  offset="1" style="stop-color:#F47944"/>
	</radialGradient>
	<polygon fill="url(#SVGID_12_)" stroke="#E74E25" stroke-width="6" stroke-miterlimit="10" points="250.228,770.662 
		304.475,757.104 289.094,810.863 	"/>
	
		<radialGradient id="SVGID_13_" cx="683.7783" cy="639.2871" r="26.1521" gradientTransform="matrix(0.684 -0.7295 0.7295 0.684 -250.54 701.3057)" gradientUnits="userSpaceOnUse">
		<stop  offset="0" style="stop-color:#E72C25"/>
		<stop  offset="1" style="stop-color:#F47944"/>
	</radialGradient>
	<polygon fill="url(#SVGID_13_)" stroke="#E74E25" stroke-width="6" stroke-miterlimit="10" points="682.063,676.719 
		665.859,623.202 720.308,635.927 	"/>
</g>
<g id="Layer_8">
	<rect x="922.906" y="129.061" fill="none" width="183.889" height="48.002"/>
	
		<text transform="matrix(0.9807 0 0 1 922.9063 160.5454)" fill="#FFFFFF" stroke="#71CCD5" stroke-miterlimit="10" font-family="'GameOfLife'" font-size="65">150</text>
	<g>
		<path fill="#FFEEA0" d="M528.796,6.181C524.473,2.781,525.435,0,530.935,0H1014c5.5,0,10,4.5,10,10v88.609c0,5.5-4.5,10-10,10
			H669.082c-5.5,0-13.537-2.781-17.861-6.181L528.796,6.181z"/>
		<path fill="none" stroke="#FFCE06" stroke-width="3" stroke-miterlimit="10" d="M528.796,6.181C524.473,2.781,525.435,0,530.935,0
			H1014c5.5,0,10,4.5,10,10v88.609c0,5.5-4.5,10-10,10H669.082c-5.5,0-13.537-2.781-17.861-6.181L528.796,6.181z"/>
	</g>
	<g>
		<path fill="#FFFFFF" d="M610.237,31.087c-4.543-3.101-3.76-5.637,1.74-5.637h358.771c5.5,0,10,4.5,10,10v27.211
			c0,5.5-4.5,10-10,10h-289.6c-5.5,0-13.717-2.537-18.26-5.637L610.237,31.087z"/>
		<path fill="none" stroke="#000000" stroke-miterlimit="10" d="M610.237,31.087c-4.543-3.101-3.76-5.637,1.74-5.637h358.771
			c5.5,0,10,4.5,10,10v27.211c0,5.5-4.5,10-10,10h-289.6c-5.5,0-13.717-2.537-18.26-5.637L610.237,31.087z"/>
	</g>
	<rect x="942.438" y="25.45" fill="#EA3B3B" stroke="#000000" stroke-miterlimit="10" width="38.311" height="47.211"/>
	<rect x="903.375" y="25.45" fill="#C92829" stroke="#000000" stroke-miterlimit="10" width="39.063" height="47.211"/>
	<rect x="864.313" y="25.45" fill="#C92829" stroke="#000000" stroke-miterlimit="10" width="39.063" height="47.211"/>
	<rect x="825.25" y="25.45" fill="#AF2024" stroke="#000000" stroke-miterlimit="10" width="39.063" height="47.211"/>
	<rect x="786.188" y="25.45" fill="#AF2024" stroke="#000000" stroke-miterlimit="10" width="39.063" height="47.211"/>
	<rect x="747.125" y="25.45" fill="#921A1D" stroke="#000000" stroke-miterlimit="10" width="39.063" height="47.211"/>
	<rect x="708.063" y="25.45" fill="#FFFFFF" stroke="#000000" stroke-miterlimit="10" width="39.063" height="47.211"/>
</g>
</svg>
